<svg xmlns="http://www.w3.org/2000/svg" id="Ebene_1" x="0" y="0" version="1.1" viewBox="0 0 200 163" xml:space="preserve">
  <defs/>
  <style>
    .st0{fill:#fff}
  </style>
  <ellipse cx="142.7" cy="39.7" class="st0" rx="12.1" ry="12"/>
  <path d="M130.6 57.8c-13.8-3-20.3 2.5-28.4 3.3-7 .7-13.6-4.1-14.1-11.1a12 12 0 0112-12.8c2.3 0 6.3 1.6 6.3 1.6a12 12 0 0015.7-15.7l-.4-.9c-2.9-5.7-6.1-10.7-8.2-14.2a15.4 15.4 0 00-26.8-.3L44.5 80.8a16 16 0 000 15.3c4.5 9 24.7 12.4 29.2.9 4-10 14.4-17.8 26.4-17.8h.1c12 0 22.4 7.8 26.4 17.8 4.6 11.5 24.7 8.1 29.2-.9a16 16 0 000-15.3c-3.1-5.8-12.5-20.2-25.2-23zM150.7 126.4a3.1 3.1 0 00-3.1 3.1V152l-22.4-24.7c-.9-.9-2.2-1.3-3.4-.8-1.2.5-2 1.6-2 2.9v30.4c0 1.7 1.4 3.1 3.1 3.1 1.7 0 3.1-1.4 3.1-3.1v-22.5l22.4 24.7c.6.7 1.4 1 2.3 1l1.1-.2c1.2-.5 2-1.6 2-2.9v-30.4c0-1.7-1.4-3.1-3.1-3.1zM96.3 126.2a18.4 18.4 0 00-18.4 18.4c0 10.1 8.3 18.4 18.4 18.4a18.4 18.4 0 000-36.8zm0 30.7a12.3 12.3 0 110-24.6 12.3 12.3 0 010 24.6zM60.4 132.3c3 0 6 1.1 8.3 3.2 1.3 1.1 3.2 1 4.3-.2 1.1-1.3 1-3.2-.2-4.3A18.4 18.4 0 0042 144.6a18.5 18.5 0 0030.7 13.7 3 3 0 00.2-4.3 3 3 0 00-4.3-.2 12.3 12.3 0 01-20.5-9.1c.1-6.9 5.6-12.4 12.3-12.4zM199.6 158.2L182.1 128c-.5-.9-1.6-1.5-2.7-1.5s-2.1.6-2.7 1.5l-17.5 30.2a3.2 3.2 0 001.1 4.2c1.5.8 3.3.3 4.2-1.1l14.8-25.6 14.8 25.6a3 3 0 002.7 1.5c.5 0 1.1-.1 1.5-.4a3 3 0 001.3-4.2zM23.2 128c-.5-.9-1.6-1.5-2.7-1.5s-2.1.6-2.7 1.5L.4 158.2a3.2 3.2 0 001.1 4.2c1.5.8 3.3.3 4.2-1.1l14.8-25.6 14.8 25.6a3 3 0 002.7 1.5c.5 0 1-.1 1.5-.4a3 3 0 001.1-4.2L23.2 128z" class="st0"/>
</svg>
